<svg version="1.1" id="Layer_1" xmlns="http://www.w3.org/2000/svg" x="0" y="0" viewBox="0 0 176.23 34.07" xml:space="preserve"><style>.st0{fill:#fff}</style><path class="st0" d="M44.4 26.66c-4.14-.5-8.13.8-12.1 1.81-3.47.89-7.01 1.59-10.57 2.01-3.5.41-7.1.42-10.5-.63-2.07-.64-4.14-1.46-5.81-2.88-1.95-1.66-2.98-4.03-3.38-6.51-.01 0-.01.01-.02.01 0-.02-.01-.03-.01-.05-.53-3.05-.92-6.14-1.23-9.23-.7.11-1.12-.86-.46-1.23.09-.05.18-.09.27-.12.02.01.05.01.08 0 .43-.11.88-.18 1.3-.31v.02c.44-.09.88-.15 1.32-.17.44-.02.89-.02 1.34 0 .74.03.93 1.14.18 1.32-.06.02-.12.02-.18.02h-.11c-.04 0-.07 0-.1-.01-.33-.01-.66-.01-.98 0-.42.01-.84.07-1.26.15-.03 0-.05.01-.08.02.12 1.23.26 2.46.41 3.69.07.02.14.04.19.07.02.01.05.03.07.04.04.02.08.05.12.08.13-.03.26-.07.32-.08l.79-.12c.52-.08 1.05-.17 1.57-.25.84-.14 1.21 1.15.36 1.29-.74.12-1.48.24-2.23.36-.32.05-.66.14-.98.16.11.81.22 1.62.35 2.43.06.37.1.82.16 1.27.04.07.07.15.09.24.42 2.68 1.58 5.08 3.89 6.6 4.93 3.24 11.23 3.07 16.82 2.18 3.43-.54 6.79-1.34 10.15-2.23 3.33-.88 6.75-1.69 10.22-1.27.84.09.84 1.42 0 1.32z"/><path class="st0" d="M16.91 21.4c-.42.83-1.36 1.49-2.32 1.23-.98-.27-1.48-1.22-1.84-2.09-.44-1.07-.67-2.2-.81-3.35-.3-2.54-.22-5.15-.28-7.7-.02-.78 1.19-.77 1.21 0 .04 2.09.04 4.19.16 6.28.05.97.15 1.94.38 2.89.2.83.47 2 1.14 2.59 1.04.93 1.49-.96 1.5-1.65.02-1.02-.03-2.04-.06-3.06a159 159 0 00-.32-6.54c-.05-.78 1.15-.77 1.21 0 .18 2.7.3 5.4.36 8.11.02 1.07.17 2.3-.33 3.29zm11.5.97s0 .01-.01.01c.02.37-.05.73-.39.82-.41.11-.85-.17-1.12-.51a.521.521 0 01-.16-.14c-1.26-1.6-2.28-3.34-3.01-5.24-.31-.8-.59-1.61-.87-2.42.14 2.59.25 5.18.32 7.77.02.8-1.11.74-1.21 0-.01-.1-.03-.2-.04-.3-.01-.1 0-.19.02-.26-.13-4.07-.33-8.14-.61-12.2-.05-.71.96-.76 1.17-.17.03.04.05.08.06.13l.09.62c.02.04.04.08.06.13 1.22 3.67 2.2 7.46 4.5 10.62-.37-3.76-.57-7.54-.59-11.32-.01-.78 1.2-.78 1.21 0 .03 3.74.22 7.48.58 11.21-.01.02-.01.05-.01.08v.21c0 .02 0 .04.01.06-.03.28-.01.57-.01.86.01 0 .01.02.01.04zm5.72-.8l-.05.2c-.18.75-1.32.57-1.32-.18.02-3.81-.08-7.63-.31-11.43-.05-.86 1.29-.86 1.34 0 .21 3.41.31 6.83.31 10.25.01.01.02.03.03.04v.13c-.01.34-.01.66 0 .99zm14.64-2.36c-.53 1.89-2.14 3.39-4.07 3.78-1.74.35-3.53-.2-4.88-1.32-1.56-1.29-2.24-3.23-2.24-5.22 0-1.92.45-3.93 1.7-5.43 1.16-1.4 2.95-2.14 4.75-1.84.85.14.49 1.43-.36 1.29-1.93-.32-3.57 1.21-4.23 2.89-.68 1.77-.83 4.14.08 5.85.82 1.54 2.47 2.6 4.23 2.55 1.71-.05 3.26-1.27 3.72-2.91.24-.83 1.53-.47 1.3.36zm11.63 3.52c-1.22.85-2.77 1.37-4.23.83-1.42-.53-2-1.76-2.24-3.17-.53-3.05-.92-6.14-1.23-9.23-.7.11-1.12-.86-.46-1.23.08-.05.17-.08.26-.12.02.01.05.01.08 0 .43-.11.88-.18 1.3-.31v.02c.44-.08.88-.15 1.32-.16.44-.02.89-.02 1.34 0 .74.03.93 1.14.18 1.32-.06.01-.12.02-.18.02h-.11c-.04 0-.07 0-.1-.01-.33-.01-.66-.01-.98 0-.42.01-.84.07-1.26.15-.03.01-.05.01-.08.02.12 1.23.26 2.46.41 3.69.07.02.14.04.19.07.02.01.05.03.07.04.04.02.08.05.12.08.13-.03.26-.07.32-.08.26-.04.52-.08.79-.13.52-.08 1.05-.17 1.57-.25.85-.14 1.21 1.15.36 1.29-.74.12-1.48.24-2.23.36-.32.05-.66.14-.98.16.11.81.22 1.62.35 2.43.17 1.13.17 2.91 1.26 3.6 1.14.72 2.5.15 3.49-.54.71-.5 1.38.66.67 1.15zm19.59-.61l-1.23-6.1c-.05-.27-.11-.54-.16-.81l-2.25.18c-.75 2.31-1.42 4.64-2.02 7-.19.75-1.35.43-1.16-.32 1.1-4.31 2.44-8.55 4.03-12.7.23-.61 1.11-.48 1.2.02.53.44.55 1.42.67 2.03.23 1.13.46 2.25.68 3.38.47 2.34.94 4.68 1.42 7.01.13.75-1.03 1.07-1.18.31zm-1.64-8.1l-.2-.99c-.1-.52-.21-1.04-.31-1.56l-.06-.28c-.36.98-.7 1.97-1.03 2.96.53-.05 1.07-.09 1.6-.13zm13.93 8.35s0 .01-.01.01c.03.37-.05.73-.39.82-.41.11-.85-.17-1.12-.51a.521.521 0 01-.16-.14c-1.26-1.6-2.28-3.34-3.01-5.24-.31-.8-.59-1.61-.87-2.42.14 2.59.25 5.18.32 7.77.02.8-1.11.74-1.21 0-.01-.1-.03-.2-.04-.3-.01-.1 0-.19.02-.26-.13-4.07-.33-8.14-.61-12.2-.05-.71.96-.76 1.17-.17.03.04.05.08.06.13l.09.62c.02.04.04.08.06.13 1.22 3.67 2.2 7.46 4.5 10.62-.37-3.76-.57-7.54-.59-11.32-.01-.78 1.2-.78 1.21 0 .03 3.74.22 7.48.58 11.21 0 .02-.01.05-.01.08v.21c0 .02 0 .04.01.06-.03.28-.01.57-.01.86 0 0 0 .02.01.04zm10.73-7.01c-.1 1.64-.85 3.12-1.86 4.39-.53.68-1.14 1.29-1.76 1.89-.48.45-.97 1.13-1.71.95-.01 0-.02-.01-.03-.01-.3.09-.68-.02-.78-.4-.03-.12-.06-.24-.09-.35a.526.526 0 01.06-.45c-.08-3.98-.26-7.96-.52-11.93-.04-.55.56-.71.93-.47h.06c3.13.44 5.91 3.06 5.7 6.38zm-1.2-.33c-.01-2.48-1.98-4.24-4.24-4.78.23 3.67.39 7.34.47 11.02.13-.17.44-.43.49-.49.26-.24.51-.49.75-.74.45-.47.89-.96 1.26-1.49.74-1.03 1.28-2.24 1.27-3.52zm52.6 12.02c-2.45 3.53-6.37 5.67-10.54 6.47-6.73 1.29-14.04.29-20.09-2.93-4.91-2.61-9.14-7.03-9.63-12.73-.06-.42-.1-.84-.09-1.26 0-1.92.45-3.93 1.7-5.43 1.16-1.4 2.95-2.14 4.75-1.84.85.14.49 1.43-.36 1.29-1.93-.32-3.57 1.21-4.23 2.89-.37.96-.58 2.11-.55 3.22.04.08.06.18.06.29.06 3 1.29 5.78 3.26 8.01 3.81 4.31 9.66 6.67 15.27 7.43 6.73.91 15.12-.06 19.3-6.08.49-.7 1.64-.04 1.15.67z"/><path class="st0" d="M175.82 6.98c-3.89 1.41-8.12.77-11.97-.49-6.83-2.23-13.29-6.54-20.78-4.92-3.09.67-6.33 2.24-8.33 4.75-1.84 2.31-2.89 5.29-3.57 8.16.01.01.02.03.04.04-.03.07-.06.14-.1.21-.04.19-.08.38-.12.56a64.914 64.914 0 01.3 6.15c0 .48-.04.98-.04 1.47-.02.02-.03.05-.03.09v.07c-.01.09-.03.18-.03.27 0 .04.01.07.03.1v.03c-.06.32-.18.61-.47.56a.165.165 0 00-.15.05.558.558 0 01-.27-.16c-.43-.5-.26-1.22-.25-1.84a63.548 63.548 0 00-.33-7.11v-.1c-.01-.01-.03-.02-.04-.04-.66-.73-1.33-1.45-2-2.17-.32-.34-.64-.69-.97-1.03-.06-.06-.12-.12-.17-.18a.304.304 0 01-.08-.08c-.09-.1-.18-.19-.28-.29l-.14-.16v-.01c-.11-.11-.22-.22-.32-.34a.935.935 0 01-.28-.28c-.21-.32-.07-.8.3-.88l.01-.01h.04c.03 0 .07-.01.1-.01.04 0 .08.01.11.02.36.07.59.34.86.63.41.43.82.87 1.23 1.31.68.73 1.36 1.46 2.03 2.2.78-3.08 2.02-6.25 4.15-8.57 2.21-2.42 5.49-3.97 8.66-4.62 3.49-.71 6.99-.3 10.36.77 7.05 2.24 14.52 7.45 22.17 4.69.74-.27 1.06.89.33 1.16z"/></svg>