<svg version="1.1" id="Layer_1" xmlns="http://www.w3.org/2000/svg" x="0" y="0" viewBox="0 0 71 38.48" xml:space="preserve"><style>.st0{fill:#fff}</style><path class="st0" d="M70.73 29.02c-2.81 3.25-6.81 5.35-10.78 6.8-9.06 3.32-19.54 3.55-28.71.54-5.12-1.68-9.87-4.42-13.79-8.14-1.8-1.71-3.38-3.61-4.8-5.65-.19-.28-.4-.57-.61-.86-3.39 1.53-7.33.47-9.74-2.44C-3.09 12.78 1.55.34 10.33 0c.26-.01.47.06.63.18 1.58.19 3.07.97 4.17 2.2 1.76 1.95 2.45 4.6 2.72 7.15.44 4.08-.67 8.45-3.93 11.04.03.05.07.09.1.14-.04.02-.08.05-.11.07 1.56 2.12 3.08 4.16 5.01 5.99 7.53 7.14 18.03 10.1 28.25 9.54 4.51-.25 9.01-1.17 13.2-2.84 3.31-1.32 6.56-3.18 8.91-5.9.87-1.02 2.32.45 1.45 1.45zM6.64 15.78c.07-.02.15-.02.24-.02 1.37-.1 2.84.35 3.94 1.2.73.56 1.33 1.24 1.89 1.95 2.84-2.31 3.49-6.17 3.04-9.63-.4-3.11-2.25-7.85-6.25-7.01-.19.03-.35.03-.5-.01-2.98.73-5.24 3.45-6.23 6.29-1.05 2.98-1.05 6.56.91 9.14.62-1.17 1.73-1.77 2.96-1.91zm4.03 4.25c-1.03-1.11-2.25-2.02-3.68-2.2l-.15-.03c-.71.12-1.32.54-1.53 1.35l-.03.09c1.62 1.11 3.58 1.4 5.39.79z"/><path class="st0" d="M24.45 12.37c0-1.18 1.22-2.17 2.37-1.82.18.05.34.15.46.28.21.13.4.31.55.53.69 1.01.07 2.37-1.07 2.66-1.11.28-2.31-.44-2.31-1.65zm3.37 7.98c.69 1.01.07 2.37-1.07 2.66-1.11.28-2.3-.44-2.31-1.65 0-1.18 1.22-2.16 2.37-1.82.18.05.34.16.46.28.22.13.41.31.55.53z"/></svg>