<?xml version="1.0" encoding="utf-8"?>
<!-- Generator: Adobe Illustrator 24.0.2, SVG Export Plug-In . SVG Version: 6.00 Build 0)  -->
<svg version="1.1" id="Layer_1" xmlns="http://www.w3.org/2000/svg" xmlns:xlink="http://www.w3.org/1999/xlink" x="0px" y="0px"
	 viewBox="0 0 176.23 34.07" style="enable-background:new 0 0 176.23 34.07;" xml:space="preserve">
<style type="text/css">
	.st0{fill:#FFFFFF;}
</style>
<g>
	<path class="st0" d="M44.4,26.66c-4.14-0.5-8.13,0.8-12.1,1.81c-3.47,0.89-7.01,1.59-10.57,2.01c-3.5,0.41-7.1,0.42-10.5-0.63
		c-2.07-0.64-4.14-1.46-5.81-2.88c-1.95-1.66-2.98-4.03-3.38-6.51c-0.01,0-0.01,0.01-0.02,0.01c0-0.02-0.01-0.03-0.01-0.05
		c-0.53-3.05-0.92-6.14-1.23-9.23c-0.7,0.11-1.12-0.86-0.46-1.23C0.41,9.91,0.5,9.87,0.59,9.84c0.02,0.01,0.05,0.01,0.08,0
		c0.43-0.11,0.88-0.18,1.3-0.31c0,0.01,0,0.01,0,0.02C2.41,9.46,2.85,9.4,3.29,9.38c0.44-0.02,0.89-0.02,1.34,0
		c0.74,0.03,0.93,1.14,0.18,1.32c-0.06,0.02-0.12,0.02-0.18,0.02c0,0,0,0,0,0c0,0,0,0-0.01,0c-0.03,0-0.07,0-0.1,0
		c-0.04,0-0.07,0-0.1-0.01c-0.33-0.01-0.66-0.01-0.98,0c-0.42,0.01-0.84,0.07-1.26,0.15c-0.03,0-0.05,0.01-0.08,0.02
		c0.12,1.23,0.26,2.46,0.41,3.69c0.07,0.02,0.14,0.04,0.19,0.07c0.02,0.01,0.05,0.03,0.07,0.04c0.04,0.02,0.08,0.05,0.12,0.08
		c0.13-0.03,0.26-0.07,0.32-0.08C3.47,14.64,3.74,14.6,4,14.56c0.52-0.08,1.05-0.17,1.57-0.25c0.84-0.14,1.21,1.15,0.36,1.29
		c-0.74,0.12-1.48,0.24-2.23,0.36c-0.32,0.05-0.66,0.14-0.98,0.16c0.11,0.81,0.22,1.62,0.35,2.43c0.06,0.37,0.1,0.82,0.16,1.27
		c0.04,0.07,0.07,0.15,0.09,0.24c0.42,2.68,1.58,5.08,3.89,6.6c4.93,3.24,11.23,3.07,16.82,2.18c3.43-0.54,6.79-1.34,10.15-2.23
		c3.33-0.88,6.75-1.69,10.22-1.27C45.24,25.43,45.24,26.76,44.4,26.66z"/>
	<path class="st0" d="M16.91,21.4c-0.42,0.83-1.36,1.49-2.32,1.23c-0.98-0.27-1.48-1.22-1.84-2.09c-0.44-1.07-0.67-2.2-0.81-3.35
		c-0.3-2.54-0.22-5.15-0.28-7.7c-0.02-0.78,1.19-0.77,1.21,0c0.04,2.09,0.04,4.19,0.16,6.28c0.05,0.97,0.15,1.94,0.38,2.89
		c0.2,0.83,0.47,2,1.14,2.59c1.04,0.93,1.49-0.96,1.5-1.65c0.02-1.02-0.03-2.04-0.06-3.06c-0.06-2.18-0.17-4.36-0.32-6.54
		c-0.05-0.78,1.15-0.77,1.21,0c0.18,2.7,0.3,5.4,0.36,8.11C17.26,19.18,17.41,20.41,16.91,21.4z"/>
	<path class="st0" d="M28.41,22.37c0,0,0,0.01-0.01,0.01c0.02,0.37-0.05,0.73-0.39,0.82c-0.41,0.11-0.85-0.17-1.12-0.51
		c-0.06-0.03-0.11-0.08-0.16-0.14c-1.26-1.6-2.28-3.34-3.01-5.24c-0.31-0.8-0.59-1.61-0.87-2.42c0.14,2.59,0.25,5.18,0.32,7.77
		c0.02,0.8-1.11,0.74-1.21,0c-0.01-0.1-0.03-0.2-0.04-0.3c-0.01-0.1,0-0.19,0.02-0.26c-0.13-4.07-0.33-8.14-0.61-12.2
		c-0.05-0.71,0.96-0.76,1.17-0.17c0.03,0.04,0.05,0.08,0.06,0.13c0.03,0.21,0.06,0.41,0.09,0.62c0.02,0.04,0.04,0.08,0.06,0.13
		c1.22,3.67,2.2,7.46,4.5,10.62c-0.37-3.76-0.57-7.54-0.59-11.32c-0.01-0.78,1.2-0.78,1.21,0c0.03,3.74,0.22,7.48,0.58,11.21
		c-0.01,0.02-0.01,0.05-0.01,0.08v0.21c0,0.02,0,0.04,0.01,0.06c-0.03,0.28-0.01,0.57-0.01,0.86
		C28.41,22.33,28.41,22.35,28.41,22.37z"/>
	<path class="st0" d="M34.13,21.57l-0.05,0.2c-0.18,0.75-1.32,0.57-1.32-0.18c0.02-3.81-0.08-7.63-0.31-11.43
		c-0.05-0.86,1.29-0.86,1.34,0c0.21,3.41,0.31,6.83,0.31,10.25c0.01,0.01,0.02,0.03,0.03,0.04c0,0.04,0,0.09,0,0.13
		C34.12,20.92,34.12,21.24,34.13,21.57z"/>
	<path class="st0" d="M48.77,19.21c-0.53,1.89-2.14,3.39-4.07,3.78c-1.74,0.35-3.53-0.2-4.88-1.32c-1.56-1.29-2.24-3.23-2.24-5.22
		c0-1.92,0.45-3.93,1.7-5.43c1.16-1.4,2.95-2.14,4.75-1.84c0.85,0.14,0.49,1.43-0.36,1.29c-1.93-0.32-3.57,1.21-4.23,2.89
		c-0.68,1.77-0.83,4.14,0.08,5.85c0.82,1.54,2.47,2.6,4.23,2.55c1.71-0.05,3.26-1.27,3.72-2.91C47.71,18.02,49,18.38,48.77,19.21z"
		/>
	<path class="st0" d="M60.4,22.73c-1.22,0.85-2.77,1.37-4.23,0.83c-1.42-0.53-2-1.76-2.24-3.17c-0.53-3.05-0.92-6.14-1.23-9.23
		c-0.7,0.11-1.12-0.86-0.46-1.23c0.08-0.05,0.17-0.08,0.26-0.12c0.02,0.01,0.05,0.01,0.08,0c0.43-0.11,0.88-0.18,1.3-0.31
		c0,0,0,0.01,0,0.02c0.44-0.08,0.88-0.15,1.32-0.16c0.44-0.02,0.89-0.02,1.34,0c0.74,0.03,0.93,1.14,0.18,1.32
		c-0.06,0.01-0.12,0.02-0.18,0.02v0c0,0,0,0-0.01,0c-0.03,0-0.07,0-0.1,0c-0.04,0-0.07,0-0.1-0.01c-0.33-0.01-0.66-0.01-0.98,0
		c-0.42,0.01-0.84,0.07-1.26,0.15c-0.03,0.01-0.05,0.01-0.08,0.02c0.12,1.23,0.26,2.46,0.41,3.69c0.07,0.02,0.14,0.04,0.19,0.07
		c0.02,0.01,0.05,0.03,0.07,0.04c0.04,0.02,0.08,0.05,0.12,0.08c0.13-0.03,0.26-0.07,0.32-0.08c0.26-0.04,0.52-0.08,0.79-0.13
		c0.52-0.08,1.05-0.17,1.57-0.25c0.85-0.14,1.21,1.15,0.36,1.29c-0.74,0.12-1.48,0.24-2.23,0.36c-0.32,0.05-0.66,0.14-0.98,0.16
		c0.11,0.81,0.22,1.62,0.35,2.43c0.17,1.13,0.17,2.91,1.26,3.6c1.14,0.72,2.5,0.15,3.49-0.54C60.44,21.08,61.11,22.24,60.4,22.73z"
		/>
	<path class="st0" d="M79.99,22.12c-0.41-2.03-0.82-4.07-1.23-6.1c-0.05-0.27-0.11-0.54-0.16-0.81c-0.75,0.06-1.5,0.12-2.25,0.18
		c-0.75,2.31-1.42,4.64-2.02,7c-0.19,0.75-1.35,0.43-1.16-0.32c1.1-4.31,2.44-8.55,4.03-12.7c0.23-0.61,1.11-0.48,1.2,0.02
		c0.53,0.44,0.55,1.42,0.67,2.03c0.23,1.13,0.46,2.25,0.68,3.38c0.47,2.34,0.94,4.68,1.42,7.01C81.3,22.56,80.14,22.88,79.99,22.12z
		 M78.35,14.02l-0.2-0.99c-0.1-0.52-0.21-1.04-0.31-1.56c-0.02-0.09-0.04-0.19-0.06-0.28c-0.36,0.98-0.7,1.97-1.03,2.96
		C77.28,14.1,77.82,14.06,78.35,14.02z"/>
	<path class="st0" d="M92.28,22.37c0,0,0,0.01-0.01,0.01c0.03,0.37-0.05,0.73-0.39,0.82c-0.41,0.11-0.85-0.17-1.12-0.51
		c-0.06-0.03-0.11-0.08-0.16-0.14c-1.26-1.6-2.28-3.34-3.01-5.24c-0.31-0.8-0.59-1.61-0.87-2.42c0.14,2.59,0.25,5.18,0.32,7.77
		c0.02,0.8-1.11,0.74-1.21,0c-0.01-0.1-0.03-0.2-0.04-0.3c-0.01-0.1,0-0.19,0.02-0.26c-0.13-4.07-0.33-8.14-0.61-12.2
		c-0.05-0.71,0.96-0.76,1.17-0.17c0.03,0.04,0.05,0.08,0.06,0.13c0.03,0.21,0.06,0.41,0.09,0.62c0.02,0.04,0.04,0.08,0.06,0.13
		c1.22,3.67,2.2,7.46,4.5,10.62c-0.37-3.76-0.57-7.54-0.59-11.32c-0.01-0.78,1.2-0.78,1.21,0c0.03,3.74,0.22,7.48,0.58,11.21
		c0,0.02-0.01,0.05-0.01,0.08v0.21c0,0.02,0,0.04,0.01,0.06c-0.03,0.28-0.01,0.57-0.01,0.86C92.27,22.33,92.27,22.35,92.28,22.37z"
		/>
	<path class="st0" d="M103.01,15.36c-0.1,1.64-0.85,3.12-1.86,4.39c-0.53,0.68-1.14,1.29-1.76,1.89c-0.48,0.45-0.97,1.13-1.71,0.95
		c-0.01,0-0.02-0.01-0.03-0.01c-0.3,0.09-0.68-0.02-0.78-0.4c-0.03-0.12-0.06-0.24-0.09-0.35c-0.05-0.18-0.02-0.33,0.06-0.45
		c-0.08-3.98-0.26-7.96-0.52-11.93c-0.04-0.55,0.56-0.71,0.93-0.47c0.02,0,0.04,0,0.06,0C100.44,9.42,103.22,12.04,103.01,15.36z
		 M101.81,15.03c-0.01-2.48-1.98-4.24-4.24-4.78c0.23,3.67,0.39,7.34,0.47,11.02c0.13-0.17,0.44-0.43,0.49-0.49
		c0.26-0.24,0.51-0.49,0.75-0.74c0.45-0.47,0.89-0.96,1.26-1.49C101.28,17.52,101.82,16.31,101.81,15.03z"/>
	<path class="st0" d="M154.41,27.05c-2.45,3.53-6.37,5.67-10.54,6.47c-6.73,1.29-14.04,0.29-20.09-2.93
		c-4.91-2.61-9.14-7.03-9.63-12.73c-0.06-0.42-0.1-0.84-0.09-1.26c0-1.92,0.45-3.93,1.7-5.43c1.16-1.4,2.95-2.14,4.75-1.84
		c0.85,0.14,0.49,1.43-0.36,1.29c-1.93-0.32-3.57,1.21-4.23,2.89c-0.37,0.96-0.58,2.11-0.55,3.22c0.04,0.08,0.06,0.18,0.06,0.29
		c0.06,3,1.29,5.78,3.26,8.01c3.81,4.31,9.66,6.67,15.27,7.43c6.73,0.91,15.12-0.06,19.3-6.08
		C153.75,25.68,154.9,26.34,154.41,27.05z"/>
	<path class="st0" d="M175.82,6.98c-3.89,1.41-8.12,0.77-11.97-0.49c-6.83-2.23-13.29-6.54-20.78-4.92
		c-3.09,0.67-6.33,2.24-8.33,4.75c-1.84,2.31-2.89,5.29-3.57,8.16c0.01,0.01,0.02,0.03,0.04,0.04c-0.03,0.07-0.06,0.14-0.1,0.21
		c-0.04,0.19-0.08,0.38-0.12,0.56c0.12,1.31,0.22,2.63,0.26,3.95c0.03,0.73,0.04,1.47,0.04,2.2c0,0.48-0.04,0.98-0.04,1.47
		c-0.02,0.02-0.03,0.05-0.03,0.09c0,0.02,0,0.05,0,0.07c-0.01,0.09-0.03,0.18-0.03,0.27c0,0.04,0.01,0.07,0.03,0.1
		c0,0.01,0,0.02,0,0.03c-0.06,0.32-0.18,0.61-0.47,0.56c-0.06-0.01-0.11,0.01-0.15,0.05c-0.11-0.03-0.21-0.09-0.27-0.16
		c-0.43-0.5-0.26-1.22-0.25-1.84c0.01-0.78,0-1.55-0.02-2.33c-0.04-1.6-0.15-3.19-0.31-4.78c0-0.04,0-0.07,0-0.1
		c-0.01-0.01-0.03-0.02-0.04-0.04c-0.66-0.73-1.33-1.45-2-2.17c-0.32-0.34-0.64-0.69-0.97-1.03c-0.06-0.06-0.12-0.12-0.17-0.18
		c-0.03-0.02-0.06-0.05-0.08-0.08c-0.09-0.1-0.18-0.19-0.28-0.29c0.01,0.01-0.06-0.07-0.14-0.16c0,0,0-0.01,0-0.01
		c-0.11-0.11-0.22-0.22-0.32-0.34c-0.11-0.08-0.21-0.16-0.28-0.28c-0.21-0.32-0.07-0.8,0.3-0.88c0,0,0,0,0.01-0.01
		c0.01,0,0.03,0,0.04,0c0.03,0,0.07-0.01,0.1-0.01c0.04,0,0.08,0.01,0.11,0.02c0.36,0.07,0.59,0.34,0.86,0.63
		c0.41,0.43,0.82,0.87,1.23,1.31c0.68,0.73,1.36,1.46,2.03,2.2c0.78-3.08,2.02-6.25,4.15-8.57c2.21-2.42,5.49-3.97,8.66-4.62
		c3.49-0.71,6.99-0.3,10.36,0.77c7.05,2.24,14.52,7.45,22.17,4.69C176.23,5.55,176.55,6.71,175.82,6.98z"/>
</g>
</svg>
