<?xml version="1.0" encoding="utf-8"?>
<!-- Generator: Adobe Illustrator 24.0.2, SVG Export Plug-In . SVG Version: 6.00 Build 0)  -->
<svg version="1.1" id="Layer_1" xmlns="http://www.w3.org/2000/svg" xmlns:xlink="http://www.w3.org/1999/xlink" x="0px" y="0px"
	 viewBox="0 0 71 38.48" style="enable-background:new 0 0 71 38.48;" xml:space="preserve">
<style type="text/css">
	.st0{fill:#FFFFFF;}
</style>
<g>
	<path class="st0" d="M70.73,29.02c-2.81,3.25-6.81,5.35-10.78,6.8c-9.06,3.32-19.54,3.55-28.71,0.54
		c-5.12-1.68-9.87-4.42-13.79-8.14c-1.8-1.71-3.38-3.61-4.8-5.65c-0.19-0.28-0.4-0.57-0.61-0.86c-3.39,1.53-7.33,0.47-9.74-2.44
		C-3.09,12.78,1.55,0.34,10.33,0c0.26-0.01,0.47,0.06,0.63,0.18c1.58,0.19,3.07,0.97,4.17,2.2c1.76,1.95,2.45,4.6,2.72,7.15
		c0.44,4.08-0.67,8.45-3.93,11.04c0.03,0.05,0.07,0.09,0.1,0.14c-0.04,0.02-0.08,0.05-0.11,0.07c1.56,2.12,3.08,4.16,5.01,5.99
		c7.53,7.14,18.03,10.1,28.25,9.54c4.51-0.25,9.01-1.17,13.2-2.84c3.31-1.32,6.56-3.18,8.91-5.9C70.15,26.55,71.6,28.02,70.73,29.02
		z M6.64,15.78c0.07-0.02,0.15-0.02,0.24-0.02c1.37-0.1,2.84,0.35,3.94,1.2c0.73,0.56,1.33,1.24,1.89,1.95
		c2.84-2.31,3.49-6.17,3.04-9.63c-0.4-3.11-2.25-7.85-6.25-7.01C9.31,2.3,9.15,2.3,9,2.26C6.02,2.99,3.76,5.71,2.77,8.55
		c-1.05,2.98-1.05,6.56,0.91,9.14C4.3,16.52,5.41,15.92,6.64,15.78z M10.67,20.03c-1.03-1.11-2.25-2.02-3.68-2.2
		c-0.05-0.01-0.1-0.02-0.15-0.03c-0.71,0.12-1.32,0.54-1.53,1.35c-0.01,0.03-0.02,0.06-0.03,0.09C6.9,20.35,8.86,20.64,10.67,20.03z
		"/>
	<path class="st0" d="M24.45,12.37c0-1.18,1.22-2.17,2.37-1.82c0.18,0.05,0.34,0.15,0.46,0.28c0.21,0.13,0.4,0.31,0.55,0.53
		c0.69,1.01,0.07,2.37-1.07,2.66C25.65,14.3,24.45,13.58,24.45,12.37z M27.82,20.35c0.69,1.01,0.07,2.37-1.07,2.66
		c-1.11,0.28-2.3-0.44-2.31-1.65c0-1.18,1.22-2.16,2.37-1.82c0.18,0.05,0.34,0.16,0.46,0.28C27.49,19.95,27.68,20.13,27.82,20.35z"
		/>
</g>
</svg>
